<svg id="Layer_1" data-name="Layer 1" xmlns="http://www.w3.org/2000/svg" viewBox="0 0 1000 1000"><title>blogIcon</title><path d="M32,333.55a18.62,18.62,0,0,1,18.61-18.62H200q42,0,64.49,20.8t22.48,51.51q0,25.75-16,44.18c-.9,1-1.85,2-2.86,3-8.56,8.33-7.42,22.52,2.63,29a62.18,62.18,0,0,1,15,13.27q14.76,18.33,14.76,46.06,0,22.59-10.5,40.62a77.31,77.31,0,0,1-28.72,28.53q-11.3,6.54-34.08,9.51-30.32,4-40.22,4H50.56A18.62,18.62,0,0,1,32,586.75Zm90.54,76.68a18.62,18.62,0,0,0,18.61,18.62h20.42q21,0,29.22-7.23T199,400.71q0-12.68-8.22-19.81t-28.63-7.13h-21a18.62,18.62,0,0,0-18.61,18.62Zm0,114.12A18.61,18.61,0,0,0,141.1,543h27.15q23.17,0,32.69-8.22t9.51-22.09q0-12.87-9.41-20.7t-33-7.83h-27a18.62,18.62,0,0,0-18.61,18.62Z"/><path d="M353.27,314.93h63.84a8.49,8.49,0,0,1,8.49,8.5V596.87a8.49,8.49,0,0,1-8.49,8.5H353.27a8.5,8.5,0,0,1-8.5-8.5V323.43A8.5,8.5,0,0,1,353.27,314.93Z"/><path d="M467.21,500.76q0-48.13,32.49-79.34t87.76-31.21q63.21,0,95.5,36.66,25.95,29.52,25.95,72.71,0,48.54-32.19,79.54t-89.06,31q-50.71,0-82-25.75Q467.21,552.48,467.21,500.76Zm80.83-.19q0,28.13,11.39,41.6t28.63,13.47a35.79,35.79,0,0,0,28.63-13.27q11.19-13.27,11.19-42.6,0-27.33-11.29-40.71t-27.94-13.37q-17.62,0-29.12,13.57T548,500.57Z"/><path d="M902.64,395h58.5a8.49,8.49,0,0,1,8.49,8.49V593.68l.2,9.31a87.76,87.76,0,0,1-8.42,37.74q-8.43,17.92-22.39,29t-35.46,16q-21.49,5-49.23,5-63.41,0-87.07-19t-23.68-50.92c0-.42,0-.87,0-1.34a8.5,8.5,0,0,1,9.46-8.32l63.8,7.27a8.4,8.4,0,0,1,6.9,5.23q2.85,7.23,7.6,10.44,8.91,6.14,22.38,6.14,17.43,0,26.06-9.31t8.61-32.49V586.9a8.48,8.48,0,0,0-13.75-6.67,63.49,63.49,0,0,1-10,6.71,84.28,84.28,0,0,1-40.22,9.91q-42.2,0-68.15-36.85-18.42-26.14-18.42-69.14,0-49.14,23.77-74.89t62.21-25.76q24.55,0,40.51,8.33a71.47,71.47,0,0,1,15.48,11.09,8.51,8.51,0,0,0,14.34-6.17h0A8.49,8.49,0,0,1,902.64,395ZM818.27,497q0,22.79,9.71,33.78t25.56,11a32.53,32.53,0,0,0,25.25-11.39Q889,519,889,496t-10.7-35.17q-10.69-12.18-26.15-12.18t-24.67,11.19Q818.27,471.05,818.27,497Z"/></svg>