<svg xmlns="http://www.w3.org/2000/svg" viewBox="0 0 239.02 234.14"><title>logoNumberOne</title><g id="Layer_2" data-name="Layer 2"><g id="Layer_1-2" data-name="Layer 1"><rect x="0.5" y="0.77" width="36.67" height="232.87"/><path d="M36.67,1.27V233.14H1V1.27H36.67m1-1H0V234.14H37.67V.27Z"/><rect x="62.83" y="0.77" width="36.67" height="232.87"/><path d="M99,1.27V233.14H63.33V1.27H99m1-1H62.33V234.14H100V.27Z"/><rect x="124.89" y="0.5" width="36.67" height="232.87"/><path d="M161.06,1V232.87H125.39V1h35.67m1-1H124.39V233.87h37.67V0Z"/><path d="M165.19,233.53c-20,0-32.17-1.82-32.17-27v-4.05c0-24.86-.12-66.46,15.05-81.66a19.54,19.54,0,0,1,14.27-5.93c15.33,0,34.41,6.84,49.78,17.85,16.79,12,26.41,27,26.41,41a62.06,62.06,0,0,1-16.45,41.47c-10.81,11.73-24.9,18.19-39.69,18.19-3.27,0-6.41,0-9.4.09C170.26,233.49,167.66,233.53,165.19,233.53Z"/><path d="M162.33,115.36c15.23,0,34.19,6.81,49.49,17.76C228.47,145,238,159.83,238,173.71a61.53,61.53,0,0,1-16.32,41.13c-10.71,11.63-24.67,18-39.32,18-3.28,0-6.39,0-9.41.09-2.73,0-5.31.07-7.78.07-19.71,0-31.67-1.79-31.67-26.53,0-1.3,0-2.65,0-4.05,0-24.78-.12-66.25,14.9-81.31a19.05,19.05,0,0,1,13.92-5.78m0-1c-31.28,0-29.81,60.86-29.81,92.14,0,25,11.89,27.53,32.67,27.53,5.19,0,10.94-.16,17.19-.16,31.28,0,56.64-28.88,56.64-60.16s-45.41-59.35-76.69-59.35Z"/><path d="M193.2,129.94a32.59,32.59,0,0,1-7.45-.89c-28.58-6.74-58.15-32-58.15-62.65C127.6,36.67,152,.77,182.38.77c14.16,0,28.52,7,39.4,19.14,10.64,11.9,16.74,27.16,16.74,41.88a94.92,94.92,0,0,1-12.05,44.63c-8.73,15.17-20.55,23.52-33.26,23.52Z"/><path d="M182.38,1.27c14,0,28.24,6.92,39,19C232,32.05,238,47.19,238,61.79,238,90,221,129.44,193.2,129.44a31.71,31.71,0,0,1-7.34-.88,84.82,84.82,0,0,1-39.92-22.47C134.43,94.4,128.1,80.31,128.1,66.4c0-14.77,6-31.18,16-43.9,10.77-13.69,24.37-21.23,38.3-21.23m0-1C151.85.27,127.1,35.86,127.1,66.4s28.82,56.13,58.54,63.14a33,33,0,0,0,7.56.9C222,130.44,239,89.94,239,61.79,239,31.26,212.92.27,182.38.27Z"/></g></g></svg>